<svg xmlns="http://www.w3.org/2000/svg" viewBox="0 0 220.93 61.82"><title>logo</title><path d="M3.87,13.46H6A3.87,3.87,0,0,1,9.9,17.33V44.92a3.45,3.45,0,0,1-3.45,3.45H3.87A3.87,3.87,0,0,1,0,44.49V17.33a3.87,3.87,0,0,1,3.87-3.87Z" style="fill:#231f20"/><path d="M58.23,0h2.15a3.87,3.87,0,0,1,3.87,3.87v54.5a3.45,3.45,0,0,1-3.45,3.45H58.23a3.87,3.87,0,0,1-3.87-3.87V3.87A3.87,3.87,0,0,1,58.23,0Z" style="fill:#231f20"/><path d="M22,0h2.15A3.87,3.87,0,0,1,28,3.87v54.5a3.45,3.45,0,0,1-3.45,3.45H22a3.87,3.87,0,0,1-3.87-3.87V3.87A3.87,3.87,0,0,1,22,0Z" style="fill:#231f20"/><path d="M76.34,13.46H78.5a3.87,3.87,0,0,1,3.87,3.87V44.92a3.45,3.45,0,0,1-3.45,3.45H76.34a3.87,3.87,0,0,1-3.87-3.87V17.33A3.87,3.87,0,0,1,76.34,13.46Z" style="fill:#231f20"/><path d="M40.11,15.32h2.15a3.87,3.87,0,0,1,3.87,3.87V46a3.45,3.45,0,0,1-3.45,3.45H40.11a3.87,3.87,0,0,1-3.87-3.87V19.19a3.87,3.87,0,0,1,3.87-3.87Z" style="fill:#231f20"/><path d="M115,39.6l8.4-18.06a.54.54,0,0,1,.46-.3h.27a.54.54,0,0,1,.46.3l8.4,18.06a.47.47,0,0,1-.46.7h-3c-.48,0-.7-.16-.94-.67l-1-2.12h-7.3l-1,2.15a1,1,0,0,1-1,.64h-3A.47.47,0,0,1,115,39.6Zm11-5.74-2-4.43h0l-2,4.43Z" style="fill:#ea9223"/><path d="M154,21.25a9,9,0,0,1,6.49,2.5.5.5,0,0,1,0,.75l-2.09,2.17a.47.47,0,0,1-.67,0,5.48,5.48,0,0,0-3.62-1.37,5.35,5.35,0,0,0-5.26,5.53,5.32,5.32,0,0,0,5.29,5.45,5.68,5.68,0,0,0,3.6-1.29.53.53,0,0,1,.7,0l2.09,2.23a.54.54,0,0,1,0,.72,9.21,9.21,0,0,1-6.52,2.6,9.66,9.66,0,1,1,0-19.32Z" style="fill:#ea9223"/><path d="M176.35,21.68a.51.51,0,0,1,.48-.43h.43a.59.59,0,0,1,.46.27l6.23,11.59H184l6.23-11.59a.59.59,0,0,1,.46-.27h.43a.51.51,0,0,1,.48.43l3,18a.49.49,0,0,1-.51.59H191a.55.55,0,0,1-.51-.43l-1.21-8.29h-.05l-4.51,8.7a.63.63,0,0,1-.46.3h-.48a.58.58,0,0,1-.46-.3l-4.54-8.7h-.05l-1.18,8.29a.52.52,0,0,1-.51.43h-3.17a.49.49,0,0,1-.51-.59Z" style="fill:#ea9223"/><path d="M208.8,22a.51.51,0,0,1,.51-.51h11.11a.51.51,0,0,1,.51.51V25a.51.51,0,0,1-.51.51H213v3.33h6.12a.53.53,0,0,1,.51.51v2.93a.51.51,0,0,1-.51.51H213v3.62h7.43a.51.51,0,0,1,.51.51v2.93a.51.51,0,0,1-.51.51H209.31a.51.51,0,0,1-.51-.51Z" style="fill:#ea9215"/></svg>