<svg xmlns="http://www.w3.org/2000/svg" viewBox="0 0 20.14 15.48"><title>twit-logo</title><path d="M17.56,4c0,.16,0,.33,0,.49A10.67,10.67,0,0,1,6.84,15.23,10.68,10.68,0,0,1,1,13.53a7.66,7.66,0,0,0,.9.05A7.58,7.58,0,0,0,6.64,12,3.78,3.78,0,0,1,3.11,9.35a3.86,3.86,0,0,0,.71.07,3.79,3.79,0,0,0,1-.13,3.78,3.78,0,0,1-3-3.7v0A3.77,3.77,0,0,0,3.5,6,3.78,3.78,0,0,1,2.33,1a10.72,10.72,0,0,0,7.78,3.94A3.81,3.81,0,0,1,10,4a3.78,3.78,0,0,1,6.53-2.58,7.6,7.6,0,0,0,2.4-.92,3.79,3.79,0,0,1-1.66,2.09A7.55,7.55,0,0,0,19.45,2,7.62,7.62,0,0,1,17.56,4Z" style="fill:none;stroke:#ea9215;stroke-miterlimit:10;stroke-width:0.5px;"/></svg>